<?xml version="1.0" encoding="UTF-8" standalone="no"?>
<!-- Created with Inkscape (http://www.inkscape.org/) -->

<svg
   xmlns:dc="http://purl.org/dc/elements/1.1/"
   xmlns:cc="http://creativecommons.org/ns#"
   xmlns:rdf="http://www.w3.org/1999/02/22-rdf-syntax-ns#"
   xmlns:svg="http://www.w3.org/2000/svg"
   xmlns="http://www.w3.org/2000/svg"
   version="1.1"
   width="1238.8427"
   height="420.3725"
   id="svg4192">
  <defs
     id="defs4194" />
  <metadata
     id="metadata4197">
    <rdf:RDF>
      <cc:Work
         rdf:about="">
        <dc:format>image/svg+xml</dc:format>
        <dc:type
           rdf:resource="http://purl.org/dc/dcmitype/StillImage" />
        <dc:title></dc:title>
      </cc:Work>
    </rdf:RDF>
  </metadata>
  <g
     transform="translate(221.74481,-244.94031)"
     id="layer1">
    <rect
       width="1238.8427"
       height="420.3725"
       x="-221.74481"
       y="244.94031"
       id="rect5587"
       style="fill:#ffffff;fill-opacity:1;stroke:none" />
    <path
       d="m 1008.5714,214.6691 0,463.06844"
       id="path5043"
       style="fill:none;stroke:#ff6b62;stroke-width:2;stroke-linecap:round;stroke-linejoin:round;stroke-miterlimit:4;stroke-opacity:1;stroke-dasharray:none;stroke-dashoffset:0" />
    <path
       d="m 991.9835,214.6691 0,463.06844"
       id="path5045"
       style="fill:none;stroke:#ff6b62;stroke-width:2;stroke-linecap:round;stroke-linejoin:round;stroke-miterlimit:4;stroke-opacity:1;stroke-dasharray:none;stroke-dashoffset:0" />
    <path
       d="m 975.39561,214.6691 0,463.06844"
       id="path5047"
       style="fill:none;stroke:#ff6b62;stroke-width:2;stroke-linecap:round;stroke-linejoin:round;stroke-miterlimit:4;stroke-opacity:1;stroke-dasharray:none;stroke-dashoffset:0" />
    <path
       d="m 958.80784,214.6691 0,463.06844"
       id="path5049"
       style="fill:none;stroke:#ff6b62;stroke-width:2;stroke-linecap:round;stroke-linejoin:round;stroke-miterlimit:4;stroke-opacity:1;stroke-dasharray:none;stroke-dashoffset:0" />
    <path
       d="m 942.21995,214.6691 0,463.06844"
       id="path5051"
       style="fill:none;stroke:#ff6b62;stroke-width:4;stroke-linecap:round;stroke-linejoin:round;stroke-miterlimit:4;stroke-opacity:1;stroke-dasharray:none;stroke-dashoffset:0" />
    <path
       d="m 925.63217,214.6691 0,463.06844"
       id="path5053"
       style="fill:none;stroke:#ff6b62;stroke-width:2;stroke-linecap:round;stroke-linejoin:round;stroke-miterlimit:4;stroke-opacity:1;stroke-dasharray:none;stroke-dashoffset:0" />
    <path
       d="m 909.04428,214.6691 0,463.06844"
       id="path5055"
       style="fill:none;stroke:#ff6b62;stroke-width:2;stroke-linecap:round;stroke-linejoin:round;stroke-miterlimit:4;stroke-opacity:1;stroke-dasharray:none;stroke-dashoffset:0" />
    <path
       d="m 892.45652,214.6691 0,463.06844"
       id="path5057"
       style="fill:none;stroke:#ff6b62;stroke-width:2;stroke-linecap:round;stroke-linejoin:round;stroke-miterlimit:4;stroke-opacity:1;stroke-dasharray:none;stroke-dashoffset:0" />
    <path
       d="m 875.86862,214.6691 0,463.06844"
       id="path5059"
       style="fill:none;stroke:#ff6b62;stroke-width:2;stroke-linecap:round;stroke-linejoin:round;stroke-miterlimit:4;stroke-opacity:1;stroke-dasharray:none;stroke-dashoffset:0" />
    <path
       d="m 859.28089,214.6691 0,463.06844"
       id="path5061"
       style="fill:none;stroke:#ff6b62;stroke-width:4;stroke-linecap:round;stroke-linejoin:round;stroke-miterlimit:4;stroke-opacity:1;stroke-dasharray:none;stroke-dashoffset:0" />
    <path
       d="m 842.69297,214.6691 0,463.06844"
       id="path5063"
       style="fill:none;stroke:#ff6b62;stroke-width:2;stroke-linecap:round;stroke-linejoin:round;stroke-miterlimit:4;stroke-opacity:1;stroke-dasharray:none;stroke-dashoffset:0" />
    <path
       d="m 826.10508,214.6691 0,463.06844"
       id="path5065"
       style="fill:none;stroke:#ff6b62;stroke-width:2;stroke-linecap:round;stroke-linejoin:round;stroke-miterlimit:4;stroke-opacity:1;stroke-dasharray:none;stroke-dashoffset:0" />
    <path
       d="m 809.51731,214.6691 0,463.06844"
       id="path5067"
       style="fill:none;stroke:#ff6b62;stroke-width:2;stroke-linecap:round;stroke-linejoin:round;stroke-miterlimit:4;stroke-opacity:1;stroke-dasharray:none;stroke-dashoffset:0" />
    <path
       d="m 792.92948,214.6691 0,463.06844"
       id="path5069"
       style="fill:none;stroke:#ff6b62;stroke-width:2;stroke-linecap:round;stroke-linejoin:round;stroke-miterlimit:4;stroke-opacity:1;stroke-dasharray:none;stroke-dashoffset:0" />
    <path
       d="m 776.34169,214.6691 0,463.06844"
       id="path5071"
       style="fill:none;stroke:#ff6b62;stroke-width:4;stroke-linecap:round;stroke-linejoin:round;stroke-miterlimit:4;stroke-opacity:1;stroke-dasharray:none;stroke-dashoffset:0" />
    <path
       d="m 759.75378,214.6691 0,463.06844"
       id="path5073"
       style="fill:none;stroke:#ff6b62;stroke-width:2;stroke-linecap:round;stroke-linejoin:round;stroke-miterlimit:4;stroke-opacity:1;stroke-dasharray:none;stroke-dashoffset:0" />
    <path
       d="m 743.16595,214.6691 0,463.06844"
       id="path5075"
       style="fill:none;stroke:#ff6b62;stroke-width:2;stroke-linecap:round;stroke-linejoin:round;stroke-miterlimit:4;stroke-opacity:1;stroke-dasharray:none;stroke-dashoffset:0" />
    <path
       d="m 726.57813,214.6691 0,463.06844"
       id="path5077"
       style="fill:none;stroke:#ff6b62;stroke-width:2;stroke-linecap:round;stroke-linejoin:round;stroke-miterlimit:4;stroke-opacity:1;stroke-dasharray:none;stroke-dashoffset:0" />
    <path
       d="m 709.99029,214.6691 0,463.06844"
       id="path5079"
       style="fill:none;stroke:#ff6b62;stroke-width:2;stroke-linecap:round;stroke-linejoin:round;stroke-miterlimit:4;stroke-opacity:1;stroke-dasharray:none;stroke-dashoffset:0" />
    <path
       d="m 693.40244,214.6691 0,463.06844"
       id="path5081"
       style="fill:none;stroke:#ff6b62;stroke-width:4;stroke-linecap:round;stroke-linejoin:round;stroke-miterlimit:4;stroke-opacity:1;stroke-dasharray:none;stroke-dashoffset:0" />
    <path
       d="m 676.81462,214.6691 0,463.06844"
       id="path5083"
       style="fill:none;stroke:#ff6b62;stroke-width:2;stroke-linecap:round;stroke-linejoin:round;stroke-miterlimit:4;stroke-opacity:1;stroke-dasharray:none;stroke-dashoffset:0" />
    <path
       d="m 660.22679,214.6691 0,463.06844"
       id="path5085"
       style="fill:none;stroke:#ff6b62;stroke-width:2;stroke-linecap:round;stroke-linejoin:round;stroke-miterlimit:4;stroke-opacity:1;stroke-dasharray:none;stroke-dashoffset:0" />
    <path
       d="m 643.6389,214.6691 0,463.06844"
       id="path5087"
       style="fill:none;stroke:#ff6b62;stroke-width:2;stroke-linecap:round;stroke-linejoin:round;stroke-miterlimit:4;stroke-opacity:1;stroke-dasharray:none;stroke-dashoffset:0" />
    <path
       d="m 627.05107,214.6691 0,463.06844"
       id="path5089"
       style="fill:none;stroke:#ff6b62;stroke-width:2;stroke-linecap:round;stroke-linejoin:round;stroke-miterlimit:4;stroke-opacity:1;stroke-dasharray:none;stroke-dashoffset:0" />
    <path
       d="m 610.46327,214.6691 0,463.06844"
       id="path5091"
       style="fill:none;stroke:#ff6b62;stroke-width:4;stroke-linecap:round;stroke-linejoin:round;stroke-miterlimit:4;stroke-opacity:1;stroke-dasharray:none;stroke-dashoffset:0" />
    <path
       d="m 593.87543,214.6691 0,463.06844"
       id="path5093"
       style="fill:none;stroke:#ff6b62;stroke-width:2;stroke-linecap:round;stroke-linejoin:round;stroke-miterlimit:4;stroke-opacity:1;stroke-dasharray:none;stroke-dashoffset:0" />
    <path
       d="m 577.2876,214.6691 0,463.06844"
       id="path5095"
       style="fill:none;stroke:#ff6b62;stroke-width:2;stroke-linecap:round;stroke-linejoin:round;stroke-miterlimit:4;stroke-opacity:1;stroke-dasharray:none;stroke-dashoffset:0" />
    <path
       d="m 560.69978,214.6691 0,463.06844"
       id="path5097"
       style="fill:none;stroke:#ff6b62;stroke-width:2;stroke-linecap:round;stroke-linejoin:round;stroke-miterlimit:4;stroke-opacity:1;stroke-dasharray:none;stroke-dashoffset:0" />
    <path
       d="m 544.11194,214.6691 0,463.06844"
       id="path5099"
       style="fill:none;stroke:#ff6b62;stroke-width:2;stroke-linecap:round;stroke-linejoin:round;stroke-miterlimit:4;stroke-opacity:1;stroke-dasharray:none;stroke-dashoffset:0" />
    <path
       d="m 527.52409,214.6691 0,463.06844"
       id="path5101"
       style="fill:none;stroke:#ff6b62;stroke-width:4;stroke-linecap:round;stroke-linejoin:round;stroke-miterlimit:4;stroke-opacity:1;stroke-dasharray:none;stroke-dashoffset:0" />
    <path
       d="m 510.93631,214.6691 0,463.06844"
       id="path5103"
       style="fill:none;stroke:#ff6b62;stroke-width:2;stroke-linecap:round;stroke-linejoin:round;stroke-miterlimit:4;stroke-opacity:1;stroke-dasharray:none;stroke-dashoffset:0" />
    <path
       d="m 494.34838,214.6691 0,463.06844"
       id="path5105"
       style="fill:none;stroke:#ff6b62;stroke-width:2;stroke-linecap:round;stroke-linejoin:round;stroke-miterlimit:4;stroke-opacity:1;stroke-dasharray:none;stroke-dashoffset:0" />
    <path
       d="m 477.76056,214.6691 0,463.06844"
       id="path5107"
       style="fill:none;stroke:#ff6b62;stroke-width:2;stroke-linecap:round;stroke-linejoin:round;stroke-miterlimit:4;stroke-opacity:1;stroke-dasharray:none;stroke-dashoffset:0" />
    <path
       d="m 461.17273,214.6691 0,463.06844"
       id="path5109"
       style="fill:none;stroke:#ff6b62;stroke-width:2;stroke-linecap:round;stroke-linejoin:round;stroke-miterlimit:4;stroke-opacity:1;stroke-dasharray:none;stroke-dashoffset:0" />
    <path
       d="m 444.5849,214.6691 0,463.06844"
       id="path5111"
       style="fill:none;stroke:#ff6b62;stroke-width:4;stroke-linecap:round;stroke-linejoin:round;stroke-miterlimit:4;stroke-opacity:1;stroke-dasharray:none;stroke-dashoffset:0" />
    <path
       d="m 427.99707,214.6691 0,463.06844"
       id="path5113"
       style="fill:none;stroke:#ff6b62;stroke-width:2;stroke-linecap:round;stroke-linejoin:round;stroke-miterlimit:4;stroke-opacity:1;stroke-dasharray:none;stroke-dashoffset:0" />
    <path
       d="m 411.40924,214.6691 0,463.06844"
       id="path5115"
       style="fill:none;stroke:#ff6b62;stroke-width:2;stroke-linecap:round;stroke-linejoin:round;stroke-miterlimit:4;stroke-opacity:1;stroke-dasharray:none;stroke-dashoffset:0" />
    <path
       d="m 394.82141,214.6691 0,463.06844"
       id="path5117"
       style="fill:none;stroke:#ff6b62;stroke-width:2;stroke-linecap:round;stroke-linejoin:round;stroke-miterlimit:4;stroke-opacity:1;stroke-dasharray:none;stroke-dashoffset:0" />
    <path
       d="m 378.23352,214.6691 0,463.06844"
       id="path5119"
       style="fill:none;stroke:#ff6b62;stroke-width:2;stroke-linecap:round;stroke-linejoin:round;stroke-miterlimit:4;stroke-opacity:1;stroke-dasharray:none;stroke-dashoffset:0" />
    <path
       d="m 361.64569,214.6691 0,463.06844"
       id="path5121"
       style="fill:none;stroke:#ff6b62;stroke-width:4;stroke-linecap:round;stroke-linejoin:round;stroke-miterlimit:4;stroke-opacity:1;stroke-dasharray:none;stroke-dashoffset:0" />
    <path
       d="m 345.05785,214.6691 0,463.06844"
       id="path5123"
       style="fill:none;stroke:#ff6b62;stroke-width:2;stroke-linecap:round;stroke-linejoin:round;stroke-miterlimit:4;stroke-opacity:1;stroke-dasharray:none;stroke-dashoffset:0" />
    <path
       d="m 328.47002,214.6691 0,463.06844"
       id="path5125"
       style="fill:none;stroke:#ff6b62;stroke-width:2;stroke-linecap:round;stroke-linejoin:round;stroke-miterlimit:4;stroke-opacity:1;stroke-dasharray:none;stroke-dashoffset:0" />
    <path
       d="m 311.8822,214.6691 0,463.06844"
       id="path5127"
       style="fill:none;stroke:#ff6b62;stroke-width:2;stroke-linecap:round;stroke-linejoin:round;stroke-miterlimit:4;stroke-opacity:1;stroke-dasharray:none;stroke-dashoffset:0" />
    <path
       d="m 295.29436,214.6691 0,463.06844"
       id="path5129"
       style="fill:none;stroke:#ff6b62;stroke-width:2;stroke-linecap:round;stroke-linejoin:round;stroke-miterlimit:4;stroke-opacity:1;stroke-dasharray:none;stroke-dashoffset:0" />
    <path
       d="m 278.70654,214.6691 0,463.06844"
       id="path5131"
       style="fill:none;stroke:#ff6b62;stroke-width:4;stroke-linecap:round;stroke-linejoin:round;stroke-miterlimit:4;stroke-opacity:1;stroke-dasharray:none;stroke-dashoffset:0" />
    <path
       d="m 262.11864,214.6691 0,463.06844"
       id="path5133"
       style="fill:none;stroke:#ff6b62;stroke-width:2;stroke-linecap:round;stroke-linejoin:round;stroke-miterlimit:4;stroke-opacity:1;stroke-dasharray:none;stroke-dashoffset:0" />
    <path
       d="m 245.53083,214.6691 0,463.06844"
       id="path5135"
       style="fill:none;stroke:#ff6b62;stroke-width:2;stroke-linecap:round;stroke-linejoin:round;stroke-miterlimit:4;stroke-opacity:1;stroke-dasharray:none;stroke-dashoffset:0" />
    <path
       d="m 228.94301,214.6691 0,463.06844"
       id="path5137"
       style="fill:none;stroke:#ff6b62;stroke-width:2;stroke-linecap:round;stroke-linejoin:round;stroke-miterlimit:4;stroke-opacity:1;stroke-dasharray:none;stroke-dashoffset:0" />
    <path
       d="m 212.35515,214.6691 0,463.06844"
       id="path5139"
       style="fill:none;stroke:#ff6b62;stroke-width:2;stroke-linecap:round;stroke-linejoin:round;stroke-miterlimit:4;stroke-opacity:1;stroke-dasharray:none;stroke-dashoffset:0" />
    <path
       d="m 195.76732,214.6691 0,463.06844"
       id="path5141"
       style="fill:none;stroke:#ff6b62;stroke-width:4;stroke-linecap:round;stroke-linejoin:round;stroke-miterlimit:4;stroke-opacity:1;stroke-dasharray:none;stroke-dashoffset:0" />
    <path
       d="m 179.17949,214.6691 0,463.06844"
       id="path5143"
       style="fill:none;stroke:#ff6b62;stroke-width:2;stroke-linecap:round;stroke-linejoin:round;stroke-miterlimit:4;stroke-opacity:1;stroke-dasharray:none;stroke-dashoffset:0" />
    <path
       d="m 162.59165,214.6691 0,463.06844"
       id="path5145"
       style="fill:none;stroke:#ff6b62;stroke-width:2;stroke-linecap:round;stroke-linejoin:round;stroke-miterlimit:4;stroke-opacity:1;stroke-dasharray:none;stroke-dashoffset:0" />
    <path
       d="m 146.00383,214.6691 0,463.06844"
       id="path5147"
       style="fill:none;stroke:#ff6b62;stroke-width:2;stroke-linecap:round;stroke-linejoin:round;stroke-miterlimit:4;stroke-opacity:1;stroke-dasharray:none;stroke-dashoffset:0" />
    <path
       d="m 129.41597,214.6691 0,463.06844"
       id="path5149"
       style="fill:none;stroke:#ff6b62;stroke-width:2;stroke-linecap:round;stroke-linejoin:round;stroke-miterlimit:4;stroke-opacity:1;stroke-dasharray:none;stroke-dashoffset:0" />
    <path
       d="m 112.82814,214.6691 0,463.06844"
       id="path5151"
       style="fill:none;stroke:#ff6b62;stroke-width:4;stroke-linecap:round;stroke-linejoin:round;stroke-miterlimit:4;stroke-opacity:1;stroke-dasharray:none;stroke-dashoffset:0" />
    <path
       d="m 96.240309,214.6691 0,463.06844"
       id="path5153"
       style="fill:none;stroke:#ff6b62;stroke-width:2;stroke-linecap:round;stroke-linejoin:round;stroke-miterlimit:4;stroke-opacity:1;stroke-dasharray:none;stroke-dashoffset:0" />
    <path
       d="m 79.652452,214.6691 0,463.06844"
       id="path5155"
       style="fill:none;stroke:#ff6b62;stroke-width:2;stroke-linecap:round;stroke-linejoin:round;stroke-miterlimit:4;stroke-opacity:1;stroke-dasharray:none;stroke-dashoffset:0" />
    <path
       d="m 63.06462,214.6691 0,463.06844"
       id="path5157"
       style="fill:none;stroke:#ff6b62;stroke-width:2;stroke-linecap:round;stroke-linejoin:round;stroke-miterlimit:4;stroke-opacity:1;stroke-dasharray:none;stroke-dashoffset:0" />
    <path
       d="m 46.476793,214.6691 0,463.06844"
       id="path5159"
       style="fill:none;stroke:#ff6b62;stroke-width:2;stroke-linecap:round;stroke-linejoin:round;stroke-miterlimit:4;stroke-opacity:1;stroke-dasharray:none;stroke-dashoffset:0" />
    <path
       d="m 29.888961,214.6691 0,463.06844"
       id="path5161"
       style="fill:none;stroke:#ff6b62;stroke-width:4;stroke-linecap:round;stroke-linejoin:round;stroke-miterlimit:4;stroke-opacity:1;stroke-dasharray:none;stroke-dashoffset:0" />
    <path
       d="m 13.301117,214.6691 0,463.06844"
       id="path5163"
       style="fill:none;stroke:#ff6b62;stroke-width:2;stroke-linecap:round;stroke-linejoin:round;stroke-miterlimit:4;stroke-opacity:1;stroke-dasharray:none;stroke-dashoffset:0" />
    <path
       d="m -3.286728,214.6691 0,463.06844"
       id="path5165"
       style="fill:none;stroke:#ff6b62;stroke-width:2;stroke-linecap:round;stroke-linejoin:round;stroke-miterlimit:4;stroke-opacity:1;stroke-dasharray:none;stroke-dashoffset:0" />
    <path
       d="m -19.874557,214.6691 0,463.06844"
       id="path5167"
       style="fill:none;stroke:#ff6b62;stroke-width:2;stroke-linecap:round;stroke-linejoin:round;stroke-miterlimit:4;stroke-opacity:1;stroke-dasharray:none;stroke-dashoffset:0" />
    <path
       d="m -36.462386,214.6691 0,463.06844"
       id="path5169"
       style="fill:none;stroke:#ff6b62;stroke-width:2;stroke-linecap:round;stroke-linejoin:round;stroke-miterlimit:4;stroke-opacity:1;stroke-dasharray:none;stroke-dashoffset:0" />
    <path
       d="m -53.050231,214.6691 0,463.06844"
       id="path5171"
       style="fill:none;stroke:#ff6b62;stroke-width:4;stroke-linecap:round;stroke-linejoin:round;stroke-miterlimit:4;stroke-opacity:1;stroke-dasharray:none;stroke-dashoffset:0" />
    <path
       d="m -69.638075,214.6691 0,463.06844"
       id="path5173"
       style="fill:none;stroke:#ff6b62;stroke-width:2;stroke-linecap:round;stroke-linejoin:round;stroke-miterlimit:4;stroke-opacity:1;stroke-dasharray:none;stroke-dashoffset:0" />
    <path
       d="m -86.225909,214.6691 0,463.06844"
       id="path5175"
       style="fill:none;stroke:#ff6b62;stroke-width:2;stroke-linecap:round;stroke-linejoin:round;stroke-miterlimit:4;stroke-opacity:1;stroke-dasharray:none;stroke-dashoffset:0" />
    <path
       d="m -102.81375,214.6691 0,463.06844"
       id="path5177"
       style="fill:none;stroke:#ff6b62;stroke-width:2;stroke-linecap:round;stroke-linejoin:round;stroke-miterlimit:4;stroke-opacity:1;stroke-dasharray:none;stroke-dashoffset:0" />
    <path
       d="m -119.40158,214.6691 0,463.06844"
       id="path5179"
       style="fill:none;stroke:#ff6b62;stroke-width:2;stroke-linecap:round;stroke-linejoin:round;stroke-miterlimit:4;stroke-opacity:1;stroke-dasharray:none;stroke-dashoffset:0" />
    <path
       d="m -135.98942,214.6691 0,463.06844"
       id="path5181"
       style="fill:none;stroke:#ff6b62;stroke-width:4;stroke-linecap:round;stroke-linejoin:round;stroke-miterlimit:4;stroke-opacity:1;stroke-dasharray:none;stroke-dashoffset:0" />
    <path
       d="m -152.57725,214.6691 0,463.06844"
       id="path5183"
       style="fill:none;stroke:#ff6b62;stroke-width:2;stroke-linecap:round;stroke-linejoin:round;stroke-miterlimit:4;stroke-opacity:1;stroke-dasharray:none;stroke-dashoffset:0" />
    <path
       d="m -169.1651,214.6691 0,463.06844"
       id="path5185"
       style="fill:none;stroke:#ff6b62;stroke-width:2;stroke-linecap:round;stroke-linejoin:round;stroke-miterlimit:4;stroke-opacity:1;stroke-dasharray:none;stroke-dashoffset:0" />
    <path
       d="m -185.75293,214.6691 0,463.06844"
       id="path5187"
       style="fill:none;stroke:#ff6b62;stroke-width:2;stroke-linecap:round;stroke-linejoin:round;stroke-miterlimit:4;stroke-opacity:1;stroke-dasharray:none;stroke-dashoffset:0" />
    <path
       d="m -202.34076,214.6691 0,463.06844"
       id="path5189"
       style="fill:none;stroke:#ff6b62;stroke-width:2;stroke-linecap:round;stroke-linejoin:round;stroke-miterlimit:4;stroke-opacity:1;stroke-dasharray:none;stroke-dashoffset:0" />
    <path
       d="m -218.9286,214.6691 0,463.06844"
       id="path5191"
       style="fill:none;stroke:#ff6b62;stroke-width:4;stroke-linecap:round;stroke-linejoin:round;stroke-miterlimit:4;stroke-opacity:1;stroke-dasharray:none;stroke-dashoffset:0" />
    <path
       d="m -225.71429,414.50504 1245.71429,0"
       id="path5193"
       style="fill:none;stroke:#ff6b62;stroke-width:4;stroke-linecap:round;stroke-linejoin:round;stroke-miterlimit:4;stroke-opacity:1;stroke-dasharray:none;stroke-dashoffset:0" />
    <path
       d="m -225.71429,431.07651 1245.71429,0"
       id="path5195"
       style="fill:none;stroke:#ff6b62;stroke-width:2;stroke-linecap:round;stroke-linejoin:round;stroke-miterlimit:4;stroke-opacity:1;stroke-dasharray:none;stroke-dashoffset:0" />
    <path
       d="m -225.71429,447.64792 1245.71429,0"
       id="path5197"
       style="fill:none;stroke:#ff6b62;stroke-width:2;stroke-linecap:round;stroke-linejoin:round;stroke-miterlimit:4;stroke-opacity:1;stroke-dasharray:none;stroke-dashoffset:0" />
    <path
       d="m -225.71429,464.21936 1245.71429,0"
       id="path5199"
       style="fill:none;stroke:#ff6b62;stroke-width:2;stroke-linecap:round;stroke-linejoin:round;stroke-miterlimit:4;stroke-opacity:1;stroke-dasharray:none;stroke-dashoffset:0" />
    <path
       d="m -225.71429,480.79077 1245.71429,0"
       id="path5201"
       style="fill:none;stroke:#ff6b62;stroke-width:2;stroke-linecap:round;stroke-linejoin:round;stroke-miterlimit:4;stroke-opacity:1;stroke-dasharray:none;stroke-dashoffset:0" />
    <path
       d="m -225.71429,497.36216 1245.71429,0"
       id="path5203"
       style="fill:none;stroke:#ff6b62;stroke-width:4;stroke-linecap:round;stroke-linejoin:round;stroke-miterlimit:4;stroke-opacity:1;stroke-dasharray:none;stroke-dashoffset:0" />
    <path
       d="m -225.71429,513.93359 1245.71429,0"
       id="path5205"
       style="fill:none;stroke:#ff6b62;stroke-width:2;stroke-linecap:round;stroke-linejoin:round;stroke-miterlimit:4;stroke-opacity:1;stroke-dasharray:none;stroke-dashoffset:0" />
    <path
       d="m -225.71429,530.50506 1245.71429,0"
       id="path5207"
       style="fill:none;stroke:#ff6b62;stroke-width:2;stroke-linecap:round;stroke-linejoin:round;stroke-miterlimit:4;stroke-opacity:1;stroke-dasharray:none;stroke-dashoffset:0" />
    <path
       d="m -225.71429,547.07648 1245.71429,0"
       id="path5209"
       style="fill:none;stroke:#ff6b62;stroke-width:2;stroke-linecap:round;stroke-linejoin:round;stroke-miterlimit:4;stroke-opacity:1;stroke-dasharray:none;stroke-dashoffset:0" />
    <path
       d="m -225.71429,563.6479 1245.71429,0"
       id="path5211"
       style="fill:none;stroke:#ff6b62;stroke-width:2;stroke-linecap:round;stroke-linejoin:round;stroke-miterlimit:4;stroke-opacity:1;stroke-dasharray:none;stroke-dashoffset:0" />
    <path
       d="m -225.71429,580.21932 1245.71429,0"
       id="path5213"
       style="fill:none;stroke:#ff6b62;stroke-width:4;stroke-linecap:round;stroke-linejoin:round;stroke-miterlimit:4;stroke-opacity:1;stroke-dasharray:none;stroke-dashoffset:0" />
    <path
       d="m -225.71429,596.79075 1245.71429,0"
       id="path5215"
       style="fill:none;stroke:#ff6b62;stroke-width:2;stroke-linecap:round;stroke-linejoin:round;stroke-miterlimit:4;stroke-opacity:1;stroke-dasharray:none;stroke-dashoffset:0" />
    <path
       d="m -225.71429,613.36218 1245.71429,0"
       id="path5217"
       style="fill:none;stroke:#ff6b62;stroke-width:2;stroke-linecap:round;stroke-linejoin:round;stroke-miterlimit:4;stroke-opacity:1;stroke-dasharray:none;stroke-dashoffset:0" />
    <path
       d="m -225.71429,629.93359 1245.71429,0"
       id="path5219"
       style="fill:none;stroke:#ff6b62;stroke-width:2;stroke-linecap:round;stroke-linejoin:round;stroke-miterlimit:4;stroke-opacity:1;stroke-dasharray:none;stroke-dashoffset:0" />
    <path
       d="m -225.71429,646.50502 1245.71429,0"
       id="path5221"
       style="fill:none;stroke:#ff6b62;stroke-width:2;stroke-linecap:round;stroke-linejoin:round;stroke-miterlimit:4;stroke-opacity:1;stroke-dasharray:none;stroke-dashoffset:0" />
    <path
       d="m -225.71429,663.07646 1245.71429,0"
       id="path5223"
       style="fill:none;stroke:#ff6b62;stroke-width:4;stroke-linecap:round;stroke-linejoin:round;stroke-miterlimit:4;stroke-opacity:1;stroke-dasharray:none;stroke-dashoffset:0" />
    <path
       d="m -225.71429,331.54626 1245.71429,0"
       id="path5488"
       style="fill:none;stroke:#ff6b62;stroke-width:4;stroke-linecap:round;stroke-linejoin:round;stroke-miterlimit:4;stroke-opacity:1;stroke-dasharray:none;stroke-dashoffset:0" />
    <path
       d="m -225.71429,348.11773 1245.71429,0"
       id="path5490"
       style="fill:none;stroke:#ff6b62;stroke-width:2;stroke-linecap:round;stroke-linejoin:round;stroke-miterlimit:4;stroke-opacity:1;stroke-dasharray:none;stroke-dashoffset:0" />
    <path
       d="m -225.71429,364.68914 1245.71429,0"
       id="path5492"
       style="fill:none;stroke:#ff6b62;stroke-width:2;stroke-linecap:round;stroke-linejoin:round;stroke-miterlimit:4;stroke-opacity:1;stroke-dasharray:none;stroke-dashoffset:0" />
    <path
       d="m -225.71429,381.26058 1245.71429,0"
       id="path5494"
       style="fill:none;stroke:#ff6b62;stroke-width:2;stroke-linecap:round;stroke-linejoin:round;stroke-miterlimit:4;stroke-opacity:1;stroke-dasharray:none;stroke-dashoffset:0" />
    <path
       d="m -225.71429,397.83199 1245.71429,0"
       id="path5496"
       style="fill:none;stroke:#ff6b62;stroke-width:2;stroke-linecap:round;stroke-linejoin:round;stroke-miterlimit:4;stroke-opacity:1;stroke-dasharray:none;stroke-dashoffset:0" />
    <path
       d="m -225.71429,248.58749 1245.71429,0"
       id="path5502"
       style="fill:none;stroke:#ff6b62;stroke-width:4;stroke-linecap:round;stroke-linejoin:round;stroke-miterlimit:4;stroke-opacity:1;stroke-dasharray:none;stroke-dashoffset:0" />
    <path
       d="m -225.71429,265.15896 1245.71429,0"
       id="path5504"
       style="fill:none;stroke:#ff6b62;stroke-width:2;stroke-linecap:round;stroke-linejoin:round;stroke-miterlimit:4;stroke-opacity:1;stroke-dasharray:none;stroke-dashoffset:0" />
    <path
       d="m -225.71429,281.73037 1245.71429,0"
       id="path5506"
       style="fill:none;stroke:#ff6b62;stroke-width:2;stroke-linecap:round;stroke-linejoin:round;stroke-miterlimit:4;stroke-opacity:1;stroke-dasharray:none;stroke-dashoffset:0" />
    <path
       d="m -225.71429,298.30181 1245.71429,0"
       id="path5508"
       style="fill:none;stroke:#ff6b62;stroke-width:2;stroke-linecap:round;stroke-linejoin:round;stroke-miterlimit:4;stroke-opacity:1;stroke-dasharray:none;stroke-dashoffset:0" />
    <path
       d="m -225.71429,314.87322 1245.71429,0"
       id="path5510"
       style="fill:none;stroke:#ff6b62;stroke-width:2;stroke-linecap:round;stroke-linejoin:round;stroke-miterlimit:4;stroke-opacity:1;stroke-dasharray:none;stroke-dashoffset:0" />
    <path
       d="m -222.23356,581.12602 c 0.22913,-0.11456 14.81628,-14.11182 21.46574,-11.11168 6.3483,2.86426 4.73476,13.46666 9.34391,18.68782 1.80779,2.04783 4.29422,5.58954 6.81853,4.54569 4.25107,-1.75789 6.05224,-0.59919 7.82868,1.01015 2.08222,1.88636 5.66188,2.13164 8.33376,1.26269 6.66588,-2.16788 13.26762,-1.08419 15.65737,7.32361 6.30326,-17.10509 3.83734,-80.24436 7.07107,-135.36044 0.71125,-12.12259 2.94714,-24.11143 4.79822,-36.11296 1.81096,-11.74147 3.08115,-2.70581 3.283,-0.75761 5.05662,48.80622 -1.77307,89.49784 14.39467,134.35029 4.10757,11.39519 12.67455,23.60081 24.24366,23.48605 2.380584,-0.0236 5.221153,-1.01972 11.111678,0.75761 8.154023,2.46029 17.189779,0.32208 25.506352,-1.51523 9.188844,-2.03002 21.832902,-2.05217 26.263966,-10.35406 3.105494,-5.81835 15.002497,-13.59917 22.728433,-22.4759 10.1856509,-11.70283 15.9729739,-11.02173 21.4657414,0.75762 4.7528996,10.19269 10.3831626,21.53972 20.2030506,27.02158 5.756203,3.21335 13.107647,1.60331 19.697975,1.76777 12.048905,0.30067 15.71065,-0.42648 22.98097,-0.25254 7.1014,0.1699 5.783629,3.24869 21.970818,0.75761 6.267114,-0.96446 12.783356,0.25176 18.940356,1.76777 2.60402,0.64117 6.12063,0.92056 13.38453,1.01015 6.1584,0.076 11.46655,0.92412 22.72843,1.26269 12.44396,0.37411 21.86172,-0.0952 26.76904,0.75762 8.43882,1.46648 10.3398,1.45492 12.87945,1.51523 9.82164,0.23324 19.28572,2.9512 25.00127,0.25253 2.58923,-1.22253 5.72431,-0.34022 8.5863,-0.25253 6.50549,0.19932 12.96362,1.17851 19.44543,1.76776 5.55584,0.50508 11.17438,0.54163 16.66752,1.51523 3.19336,0.56599 6.58043,0.46151 8.83884,-4.04061 2.32635,-4.63755 6.15162,-8.69524 13.38452,-15.65736 6.05565,-5.82894 10.56267,-0.75865 14.89975,4.04061 2.98228,3.30009 6.67262,7.17005 6.56599,11.61675 -0.21318,8.89013 6.74471,7.29094 12.12183,7.32361 7.4196,0.0451 15.12575,-0.8998 22.22336,1.26269 3.19245,0.97267 8.47923,4.20203 8.08122,-3.53554 -1.66082,-32.28731 -0.78148,-88.01068 7.3236,-150.76526 1.19814,-9.27672 1.9749,-15.94 4.79823,-1.26269 6.58782,34.24737 -1.64274,76.95365 10.6066,113.89469 4.44346,13.40039 11.1155,30.40352 21.71828,32.32489 5.7207,1.03667 11.6202,-1.07974 17.42513,-0.75762 3.82774,0.2124 7.5327,1.64069 11.36422,1.76777 5.74328,0.19049 11.60261,-0.10213 17.17259,-1.51523 2.66778,-0.67681 4.93826,-2.49771 7.57614,-3.283 2.865,-0.8529 6.01392,-0.53773 8.83884,-1.51522 8.58476,-2.97054 19.66647,-21.93366 28.78935,-28.78935 4.8364,-3.63447 11.08102,-16.72439 17.67766,-2.77792 5.62345,11.88898 10.64998,18.86775 13.63706,25.00127 1.49314,3.06594 5.13524,6.37418 9.34392,7.57615 16.32765,4.66305 33.78955,3.71485 50.76016,4.29315 14.70138,0.50097 24.52798,-1.9601 46.46702,1.01015 12.24028,1.65717 24.37319,-2.0891 31.31473,-0.75762 18.76411,3.5992 40.05832,0.55019 60.10407,1.01016 9.59983,0.22028 20.8587,-4.40371 28.78935,1.01015 10.02734,6.84516 18.90501,2.23689 25.25381,-8.08122 5.24883,-8.53044 8.42407,-22.28264 19.69798,-7.57615 7.19811,9.38973 10.08533,18.83988 19.95051,18.68783 7.66352,-0.11812 18.17167,-3.8183 25.25382,4.79822 1.48488,1.80658 3.93816,9.04234 4.79822,-2.52538 3.48273,-46.84245 2.02873,-116.65196 9.59645,-166.17009 0.58245,-3.81117 1.31479,-8.09952 2.27284,-0.50508 5.99384,47.51287 -1.40823,94.58912 18.68782,144.95689 2.82639,7.08392 10.65212,15.0979 18.18275,13.8896 17.29508,-2.77501 22.85122,1.88426 32.82996,1.01015 4.34933,-0.38099 8.23792,-2.89615 12.37437,-4.29315 5.8764,-1.98463 12.11582,-3.06308 17.67767,-5.80837 15.96392,-7.87968 18.73348,-20.2475 27.52665,-28.03174 3.39636,-3.00666 13.55443,-11.00663 18.43529,-1.76776 7.23462,13.69425 18.66544,30.55304 26.01144,31.06219"
       id="path4840"
       style="fill:none;stroke:#000000;stroke-width:4;stroke-linecap:round;stroke-linejoin:round;stroke-miterlimit:4;stroke-opacity:1;stroke-dasharray:none;stroke-dashoffset:0" />
  </g>
</svg>
